<svg xmlns="http://www.w3.org/2000/svg" viewBox="0 0 64 64">
  <!--
    The Scooplist mark v2 - built from the ACTUAL glazedweb logo
    (glazedweb/public/brand/logo.svg), not the simplified favicon. The scoop
    wears the donut icing's exact radial gradient and two-part sheen; the
    melt borrows the goo's full construction: dark back-drips for depth,
    three front drips with rounded bulbs, a lighter creep band along the
    scoop's lower arc, cream highlights down each drip, a droplet near the
    long drip's tip, and the dark accent curve. Same layer order as the
    original. Mirror of src/components/Logo.tsx - keep them in sync.
  -->
  <defs>
    <radialGradient id="sp-pink" cx="40%" cy="34%" r="75%">
      <stop offset="0%" stop-color="#F887B2"/>
      <stop offset="55%" stop-color="#E84D8A"/>
      <stop offset="100%" stop-color="#CE3672"/>
    </radialGradient>
    <linearGradient id="sp-drip" x1="0" y1="31" x2="0" y2="59" gradientUnits="userSpaceOnUse">
      <stop offset="0%" stop-color="#F887B2"/>
      <stop offset="55%" stop-color="#E84D8A"/>
      <stop offset="100%" stop-color="#CE3672"/>
    </linearGradient>
    <linearGradient id="sp-creep" x1="0" y1="28" x2="0" y2="34" gradientUnits="userSpaceOnUse">
      <stop offset="0%" stop-color="#FBAFCB"/>
      <stop offset="100%" stop-color="#F27BAB"/>
    </linearGradient>
    <linearGradient id="sp-dark" x1="0" y1="31" x2="0" y2="48" gradientUnits="userSpaceOnUse">
      <stop offset="0%" stop-color="#C22F6B"/>
      <stop offset="100%" stop-color="#992052"/>
    </linearGradient>
  </defs>

  <path d="M 18 33 L 46 33 L 32 61 Z" fill="#B98A4A"/>
  <path d="M 22 39 L 42 39 M 25 45 L 39 45 M 28 51 L 36 51 M 26 35 L 32 47 M 38 35 L 33 45" stroke="#8a6536" stroke-width="1.8" fill="none"/>

  <g fill="url(#sp-dark)">
    <ellipse cx="32" cy="35" rx="12.4" ry="4.9"/>
    <path d="M 27.4 31.8 C 27.4 37, 27.7 41.6, 28 45.5 C 28 47.5, 29 47.8, 29.4 45.5 C 29.7 41.6, 29.4 36.4, 29.4 31.8 Z"/>
    <path d="M 36.6 31.8 C 36.6 35.7, 36.9 39.6, 37.2 42.9 C 37.2 44.9, 38.2 45.2, 38.5 42.9 C 38.8 39.6, 38.5 35.1, 38.5 31.8 Z"/>
  </g>

  <g fill="url(#sp-drip)">
    <path d="M 20.2 31.8 C 19.9 38.3, 20.5 44.2, 20.8 48.8 C 20.8 52.7, 21.5 55.4, 23.5 55.7 C 25.5 55.4, 26.4 53.1, 26.1 49.5 C 26.8 43.6, 27.1 37.1, 27.4 31.8 Z"/>
    <path d="M 29.4 31.8 C 29.1 40, 29.7 46.5, 30 51.8 C 30 55.8, 31 58.4, 33.2 58.7 C 35.4 58.4, 36.4 55.9, 35.8 52 C 36.1 45.5, 36.4 38.5, 36.6 31.8 Z"/>
    <path d="M 38.5 31.8 C 38.2 37, 38.5 41.6, 38.8 45.5 C 38.8 48.7, 39.5 51.1, 41.4 51.4 C 43 51.1, 44 49.1, 43.4 46.1 C 43.7 41.6, 44 36.4, 44.1 31.8 Z"/>
  </g>

  <circle cx="32" cy="22" r="17" fill="url(#sp-pink)"/>

  <path d="M 17 30 A 17 17 0 0 0 47 30 C 46.3 28.7 45 28 43.7 28.7 C 42.4 29.6 42 31.2 40.7 31.9 C 38.7 32.5 37.7 29.9 35.7 29.3 C 33.7 28.6 33.4 31.2 31.7 32.2 C 30.1 32.8 29.1 30.6 27.1 29.6 C 25.1 28.9 24.5 30.6 22.9 31.2 C 21.2 31.5 19.9 30.6 17 30 Z" fill="url(#sp-creep)"/>
  <path d="M 21.5 33.8 A 13.7 13.7 0 0 0 26.8 37" fill="none" stroke="#FFE4EF" stroke-width="1.4" stroke-linecap="round" opacity="0.85"/>

  <path d="M 31 46 Q 33 48.3 35 46" fill="none" stroke="#C22F6B" stroke-width="1.3" stroke-linecap="round"/>

  <g stroke="#FFE4EF" fill="none" stroke-linecap="round">
    <path d="M 31 40.8 C 30.7 47.3, 31 53.2, 32 58" stroke-width="1.5" opacity="0.85"/>
    <path d="M 21.8 37.5 C 21.5 42.1, 22.1 46.7, 22.4 50" stroke-width="1.1" opacity="0.8"/>
    <path d="M 39.8 36.2 C 39.5 39.5, 40.2 44.1, 40.5 47.4" stroke-width="1.1" opacity="0.8"/>
  </g>
  <circle cx="33.2" cy="56.4" r="0.8" fill="#FFE4EF" opacity="0.9"/>

  <path d="M 19.6 14.2 A 14.4 14.4 0 0 1 26.1 8.3" fill="none" stroke="#FFFFFF" stroke-width="2.6" stroke-linecap="round" opacity="0.75"/>
  <circle cx="29.4" cy="7.6" r="1.15" fill="#FFFFFF" opacity="0.75"/>
</svg>
